<svg id="Ebene_1" data-name="Ebene 1" xmlns="http://www.w3.org/2000/svg" viewBox="0 0 32 32"><defs><style>.cls-1{fill:#662d91;stroke:#662d91;stroke-miterlimit:10;stroke-width:0.5px;}</style></defs><path class="cls-1" d="M24.2,5a.76.76,0,0,1-.33-.08,16.32,16.32,0,0,0-8-2,16.42,16.42,0,0,0-8,2,.72.72,0,0,1-1-.28.74.74,0,0,1,.29-1,18.16,18.16,0,0,1,17.29,0A.71.71,0,0,1,24.2,5ZM3.72,12.52a.74.74,0,0,1-.42-.13.71.71,0,0,1-.17-1A15,15,0,0,1,8.51,6.71a16.52,16.52,0,0,1,14.76,0,15,15,0,0,1,5.37,4.65.72.72,0,0,1-1.17.83A13.53,13.53,0,0,0,22.62,8,15.07,15.07,0,0,0,9.16,8,13.46,13.46,0,0,0,4.3,12.23.72.72,0,0,1,3.72,12.52Zm9,17.27a.73.73,0,0,1-.51-.21A14.88,14.88,0,0,1,9.29,25.8a12.69,12.69,0,0,1-1.51-6.21,7.92,7.92,0,0,1,8.1-7.72A7.92,7.92,0,0,1,24,19.59a.72.72,0,0,1-1.43,0,6.5,6.5,0,0,0-6.68-6.29,6.5,6.5,0,0,0-6.67,6.29,11.26,11.26,0,0,0,1.32,5.51,13.52,13.52,0,0,0,2.64,3.47.7.7,0,0,1,0,1A.62.62,0,0,1,12.67,29.79Zm10.26-2.65a7.83,7.83,0,0,1-4.44-1.26,7.64,7.64,0,0,1-3.4-6.29.72.72,0,0,1,1.43,0,6.2,6.2,0,0,0,2.78,5.1,6.28,6.28,0,0,0,3.63,1,9.25,9.25,0,0,0,1.49-.13.71.71,0,0,1,.83.57.73.73,0,0,1-.58.84A9.94,9.94,0,0,1,22.93,27.14ZM20,30.1a.52.52,0,0,1-.18,0,10.86,10.86,0,0,1-5.32-3,10.46,10.46,0,0,1-3.1-7.47,4.31,4.31,0,0,1,4.41-4.21,4.32,4.32,0,0,1,4.41,4.21,3,3,0,0,0,5.95,0c0-5.39-4.65-9.78-10.37-9.78a10.43,10.43,0,0,0-9.46,5.77,9.16,9.16,0,0,0-.84,4,14.28,14.28,0,0,0,1,5.16.73.73,0,0,1-.42.93.72.72,0,0,1-.92-.43A16,16,0,0,1,4.1,19.59a10.66,10.66,0,0,1,1-4.63A11.91,11.91,0,0,1,15.83,8.39c6.51,0,11.8,5,11.8,11.21a4.41,4.41,0,0,1-8.81,0,2.89,2.89,0,0,0-3-2.78,2.89,2.89,0,0,0-3,2.78,9.05,9.05,0,0,0,2.68,6.45,9.69,9.69,0,0,0,4.69,2.65A.71.71,0,0,1,20,30.1Z"/></svg>