<svg id="Ebene_1" data-name="Ebene 1" xmlns="http://www.w3.org/2000/svg" viewBox="0 0 32 32"><defs><style>.cls-1{fill:#8dcead;stroke:#91ceaf;}.cls-1,.cls-2{stroke-miterlimit:10;stroke-width:0.75px;}.cls-2{fill:#006837;stroke:#006837;fill-rule:evenodd;}</style></defs><rect class="cls-1" x="1.52" y="6.9" width="28.96" height="19.65" rx="1.98"/><path class="cls-2" d="M28.59,27.26h-25A2.63,2.63,0,0,1,1,24.63V8.87A2.63,2.63,0,0,1,3.63,6.24h25a2.62,2.62,0,0,1,2.62,2.63V24.63A2.62,2.62,0,0,1,28.59,27.26ZM29.9,14.78V12.15m0-3.28a1.31,1.31,0,0,0-1.31-1.31h-25A1.32,1.32,0,0,0,2.31,8.87v2H29.9Zm0,7.23H2.31v8.53A1.32,1.32,0,0,0,3.63,26h25a1.32,1.32,0,0,0,1.31-1.32ZM17.42,20H14.79a.66.66,0,0,1,0-1.32h2.63a.66.66,0,1,1,0,1.32Zm-5.91,0H5.6a.66.66,0,0,1,0-1.32h5.91a.66.66,0,0,1,0,1.32ZM5.6,22H9.54a.66.66,0,1,1,0,1.31H5.6A.66.66,0,1,1,5.6,22Z"/></svg>