<svg id="Ebene_1" data-name="Ebene 1" xmlns="http://www.w3.org/2000/svg" viewBox="0 0 28 28"><defs><style>.cls-1{fill:#b8e8f4;}.cls-2,.cls-3{fill:#29abe2;}.cls-2{stroke:#29abe2;stroke-miterlimit:10;stroke-width:0.5px;}</style></defs><path class="cls-1" d="M26.34,13.25l-2.28-2.31V7.66a2.24,2.24,0,0,0-2.23-2.25H18.59L16.31,3.16a2.2,2.2,0,0,0-3.14,0L10.88,5.42H7.64A2.25,2.25,0,0,0,5.41,7.68h0v3.26L3.18,13.25a2.25,2.25,0,0,0-.7,1.59,2.27,2.27,0,0,0,.64,1.59l2.3,2.31V22a2.25,2.25,0,0,0,2.23,2.26h3.23l2.29,2.31a2.22,2.22,0,0,0,3.14,0l2.28-2.32h3.25A2.25,2.25,0,0,0,24.07,22V18.74l2.28-2.31a2.26,2.26,0,0,0,0-3.18Z"/><polygon class="cls-2" points="7.58 8.32 20.07 8.32 18.28 10.39 7.58 10.39 7.58 8.32"/><polygon class="cls-2" points="14.41 11.7 17.1 11.7 11.56 18.3 20.43 18.3 20.43 20.45 7.04 20.45 14.41 11.7"/><path class="cls-3" d="M26.75,12.48,24.19,9.92V6.28a2.5,2.5,0,0,0-2.5-2.49H18.07l-2.56-2.5a2.5,2.5,0,0,0-3.53,0L9.42,3.8H5.79a2.5,2.5,0,0,0-2.5,2.5h0V9.92L.79,12.48A2.42,2.42,0,0,0,.73,16L3.3,18.56V22.2a2.5,2.5,0,0,0,2.5,2.5H9.42L12,27.26a2.52,2.52,0,0,0,3.53,0l2.56-2.58H21.7a2.5,2.5,0,0,0,2.5-2.5V18.56L26.76,16a2.49,2.49,0,0,0,0-3.52Zm-5.06,5.06v4.64H17l-3.3,3.3-3.29-3.3H5.8V17.54l-3.3-3.3,3.3-3.3V6.3h4.65L13.74,3,17,6.3h4.65v4.64l3.3,3.3Z"/></svg>