<svg id="Ebene_1" data-name="Ebene 1" xmlns="http://www.w3.org/2000/svg" viewBox="0 0 28 28"><defs><style>.cls-1{fill:#ea9ba1;}.cls-2{fill:#c1272d;}</style></defs><g id="time"><path class="cls-1" d="M19.71,14.22l5.91-5.86a1.39,1.39,0,0,0,0-2L21.71,2.45a1.44,1.44,0,0,0-1-.42h0a1.43,1.43,0,0,0-1,.41L13.82,8.33,8,2.42a1.39,1.39,0,0,0-2,0L2.05,6.33a1.39,1.39,0,0,0,0,2l5.88,5.93L2,20.09a1.39,1.39,0,0,0,0,2L5.94,26a1.24,1.24,0,0,0,1,.42,1.41,1.41,0,0,0,1-.4l5.92-5.9L19.68,26a1.39,1.39,0,0,0,2,0l3.95-3.92a1.36,1.36,0,0,0,.42-1,1.38,1.38,0,0,0-.41-1Z"/></g><g id="time-2" data-name="time"><path class="cls-2" d="M20,14.6l6.35-6.29a1.52,1.52,0,0,0,0-2.11L22.18,2a1.5,1.5,0,0,0-1.06-.44h0a1.46,1.46,0,0,0-1,.43L13.71,8.28,7.41,1.93a1.5,1.5,0,0,0-2.1,0L1.07,6.13a1.48,1.48,0,0,0,0,2.1L7.38,14.6,1,20.9A1.48,1.48,0,0,0,1,23l4.21,4.24a1.32,1.32,0,0,0,1.06.45,1.47,1.47,0,0,0,1-.44l6.36-6.32L20,27.27a1.5,1.5,0,0,0,2.11,0l4.24-4.21A1.5,1.5,0,0,0,26.79,22a1.46,1.46,0,0,0-.43-1Zm1,9.51-6.29-6.35a1.55,1.55,0,0,0-1.06-.43h0a1.53,1.53,0,0,0-1.06.43l-6.4,6.33L4.2,22l6.34-6.3A1.5,1.5,0,0,0,11,14.6a1.52,1.52,0,0,0-.44-1.06L4.22,7.14,6.35,5.05l6.3,6.34a1.49,1.49,0,0,0,2.11,0h0l6.4-6.28,2.1,2.14-6.34,6.29a1.51,1.51,0,0,0-.43,1.06,1.49,1.49,0,0,0,.43,1.06l6.27,6.4Z"/></g></svg>