<svg id="Ebene_1" data-name="Ebene 1" xmlns="http://www.w3.org/2000/svg" viewBox="0 0 29 29"><defs><style>.cls-1{fill:#ceeada;}.cls-2{fill:#22b573;}</style></defs><path class="cls-1" d="M26.34,13.25l-2.28-2.31V7.66a2.24,2.24,0,0,0-2.23-2.25H18.59L16.31,3.16a2.2,2.2,0,0,0-3.14,0L10.88,5.42H7.64A2.25,2.25,0,0,0,5.41,7.68h0v3.26L3.18,13.25a2.25,2.25,0,0,0-.7,1.59,2.27,2.27,0,0,0,.64,1.59l2.3,2.31V22a2.25,2.25,0,0,0,2.23,2.26h3.23l2.29,2.31a2.22,2.22,0,0,0,3.14,0l2.28-2.32h3.25A2.25,2.25,0,0,0,24.07,22V18.74l2.28-2.31a2.26,2.26,0,0,0,0-3.18Z"/><polygon class="cls-2" points="8.57 8.32 21.07 8.32 19.28 10.39 8.57 10.39 8.57 8.32"/><polygon class="cls-2" points="15.41 11.7 18.1 11.7 12.56 18.3 21.43 18.3 21.43 20.45 8.04 20.45 15.41 11.7"/><path class="cls-2" d="M27.75,12.48,25.19,9.92V6.28a2.5,2.5,0,0,0-2.5-2.49H19.07l-2.56-2.5a2.5,2.5,0,0,0-3.53,0L10.42,3.8H6.79a2.5,2.5,0,0,0-2.5,2.5h0V9.92l-2.5,2.56A2.42,2.42,0,0,0,1.73,16L4.3,18.56V22.2a2.5,2.5,0,0,0,2.5,2.5h3.62L13,27.26a2.52,2.52,0,0,0,3.53,0l2.56-2.58H22.7a2.5,2.5,0,0,0,2.5-2.5V18.56L27.76,16a2.49,2.49,0,0,0,0-3.52Zm-5.06,5.06v4.64H18l-3.3,3.3-3.29-3.3H6.8V17.54l-3.3-3.3,3.3-3.3V6.3h4.65L14.74,3,18,6.3h4.65v4.64l3.3,3.3Z"/></svg>